# File created by Blade
# Date/Time:  Tue Jan 27 19:14:06 2015
# Frame Rate: 120.000 fps
#------------------------------------------------------
:FULLY-SPECIFIED
:DEGREES
1831
root 4.413940 32.472480 0.298685 -4.807666 16.632953 1.915586
Spine -2.194207 14.493534 -3.312249
Head 13.021183 -25.047462 -7.335179
LeftShoulder -4.754090 -9.118073 22.117524
LeftArm -5.728856 37.149195 -103.250705
LeftForeArm 3.117933 0.000000 10.451098
LeftHand 10.089983 -0.000000 -7.087742
LeftHandThumb1 -26.253704 0.000000 33.147579
RightShoulder -10.560030 19.633123 -54.588706
RightArm 97.939240 45.828270 132.795824
RightForeArm 40.011109 -0.000000 108.808519
RightHand 31.453536 -0.000000 -12.047203
RightHandThumb1 -24.326973 -0.000000 -32.862282
LeftUpLeg 7.636389 -10.643956 -2.922514
LeftLeg 4.016862 -0.000000 -0.000000
LeftFoot -12.616978 6.131048 -21.564273
LeftToeBase 19.838882 -0.000000 -0.000000
RightUpLeg 12.495273 -6.386445 1.471932
RightLeg -1.315542 -0.000000 0.000000
RightFoot -15.172456 -20.874948 18.117998
RightToeBase 12.144649 -0.000000 -0.000000
1832
root 4.414166 32.471950 0.303699 -4.804445 16.606693 1.900424
Spine -2.201318 14.530203 -3.314768
Head 12.995225 -25.033678 -7.295233
LeftShoulder -4.741489 -9.138106 22.120390
LeftArm -5.744136 37.171800 -103.268229
LeftForeArm 3.147692 -0.000000 10.420224
LeftHand 10.068489 -0.000000 -7.107938
LeftHandThumb1 -26.253704 0.000000 33.147579
RightShoulder -10.558066 19.687486 -54.608124
RightArm 97.832796 45.808139 132.526645
RightForeArm 40.034462 -0.000000 108.887100
RightHand 31.513813 -0.000000 -12.009905
RightHandThumb1 -24.326973 -0.000000 -32.862282
LeftUpLeg 7.638295 -10.576378 -2.898953
LeftLeg 4.019953 -0.000000 -0.000000
LeftFoot -12.622388 6.097923 -21.525851
LeftToeBase 19.822802 -0.000000 -0.000000
RightUpLeg 12.499554 -6.417174 1.482702
RightLeg -1.333436 -0.000000 0.000000
RightFoot -15.170486 -20.831980 18.160219
RightToeBase 12.124795 -0.000000 -0.000000
1833
root 4.415652 32.470982 0.307032 -4.786462 16.580112 1.900745
Spine -2.218259 14.552332 -3.326611
Head 12.962310 -25.009018 -7.268541
LeftShoulder -4.732405 -8.968133 22.100635
LeftArm -5.541506 37.187232 -103.138123
LeftForeArm 3.191169 -0.000000 10.411313
LeftHand 10.044632 -0.000000 -7.170474
LeftHandThumb1 -26.253704 0.000000 33.147579
RightShoulder -10.536093 19.694710 -54.617029
RightArm 97.763644 45.731582 132.279666
RightForeArm 39.936511 -0.000000 108.988863
RightHand 31.454995 0.000000 -12.019595
RightHandThumb1 -24.326973 -0.000000 -32.862282
LeftUpLeg 7.628435 -10.556005 -2.897078
LeftLeg 4.036386 -0.000000 -0.000000
LeftFoot -12.634289 6.064804 -21.491493
LeftToeBase 19.734963 -0.000000 -0.000000
RightUpLeg 12.484430 -6.400156 1.481887
RightLeg -1.326634 -0.000000 0.000000
RightFoot -15.149722 -20.814976 18.095583
RightToeBase 12.120230 -0.000000 -0.000000
1834
root 4.419543 32.470498 0.311642 -4.770831 16.535248 1.901815
Spine -2.242165 14.597581 -3.333494
Head 12.951508 -25.016026 -7.257265
LeftShoulder -4.738034 -8.968928 22.104896
LeftArm -5.546497 37.191361 -103.153122
LeftForeArm 3.189087 0.000000 10.376920
LeftHand 10.052292 -0.000000 -7.231723
LeftHandThumb1 -26.253704 0.000000 33.147579
RightShoulder -10.530218 19.688897 -54.628265
RightArm 97.661538 45.630648 131.989445
RightForeArm 39.923572 -0.000000 109.077823
RightHand 31.461066 0.000000 -11.918215
RightHandThumb1 -24.326973 -0.000000 -32.862282
LeftUpLeg 7.637285 -10.505001 -2.897814
LeftLeg 4.006036 -0.000000 -0.000000
LeftFoot -12.635433 6.087856 -21.507774
LeftToeBase 19.770932 -0.000000 -0.000000
RightUpLeg 12.480343 -6.384297 1.475548
RightLeg -1.339557 -0.000000 0.000000
RightFoot -15.140469 -20.791271 18.073361
RightToeBase 12.119458 -0.000000 -0.000000
1835
root 4.421686 32.469402 0.316492 -4.774040 16.509706 1.897390
Spine -2.235770 14.628852 -3.335867
Head 12.913997 -25.025621 -7.224831
LeftShoulder -4.732026 -8.974346 22.114850
LeftArm -5.540953 37.195234 -103.165176
LeftForeArm 3.184981 -0.000000 10.346393
LeftHand 10.062811 -0.000000 -7.255652
LeftHandThumb1 -26.253704 0.000000 33.147579
RightShoulder -10.520986 19.624849 -54.625254
RightArm 97.628338 45.473689 131.749529
RightForeArm 39.930270 0.000000 109.185448
RightHand 31.419269 -0.000000 -11.793400
RightHandThumb1 -24.326973 -0.000000 -32.862282
LeftUpLeg 7.655010 -10.516408 -2.901727
LeftLeg 4.013029 -0.000000 -0.000000
LeftFoot -12.667468 6.089918 -21.489412
LeftToeBase 19.711321 -0.000000 -0.000000
RightUpLeg 12.491608 -6.374829 1.478568
RightLeg -1.346413 -0.000000 0.000000
RightFoot -15.133890 -20.792602 18.049688
RightToeBase 12.075932 -0.000000 -0.000000
1836
root 4.424042 32.468358 0.321593 -4.769554 16.478484 1.894778
Spine -2.240172 14.665791 -3.336359
Head 12.882678 -25.033585 -7.212197
LeftShoulder -4.728872 -9.002590 22.119798
LeftArm -5.571461 37.173486 -103.186721
LeftForeArm 3.212063 -0.000000 10.336358
LeftHand 9.990935 -0.000000 -7.320950
LeftHandThumb1 -26.253704 0.000000 33.147579
RightShoulder -10.513009 19.629161 -54.645191
RightArm 97.478473 45.376465 131.381209
RightForeArm 39.949512 0.000000 109.317123
RightHand 31.373128 -0.000000 -11.925442
RightHandThumb1 -24.326973 -0.000000 -32.862282
LeftUpLeg 7.665914 -10.476994 -2.897487
LeftLeg 4.006926 -0.000000 -0.000000
LeftFoot -12.669195 6.076661 -21.472383
LeftToeBase 19.641278 -0.000000 -0.000000
RightUpLeg 12.493841 -6.417844 1.467365
RightLeg -1.347182 -0.000000 0.000000
RightFoot -15.123628 -20.720313 18.037212
RightToeBase 12.116548 -0.000000 -0.000000
1837
root 4.426760 32.467547 0.326702 -4.766927 16.443944 1.898675
Spine -2.243069 14.706501 -3.349116
Head 12.855911 -25.065669 -7.181841
LeftShoulder -4.725994 -9.010817 22.133781
LeftArm -5.566791 37.178667 -103.201515
LeftForeArm 3.201783 0.000000 10.297939
LeftHand 10.018469 0.000000 -7.332018
LeftHandThumb1 -26.253704 0.000000 33.147579
RightShoulder -10.512449 19.619779 -54.654419
RightArm 97.311412 45.255816 130.989663
RightForeArm 39.847455 -0.000000 109.441195
RightHand 31.325869 -0.000000 -12.407397
RightHandThumb1 -24.326973 -0.000000 -32.862282
LeftUpLeg 7.687753 -10.462924 -2.906711
LeftLeg 3.976746 -0.000000 -0.000000
LeftFoot -12.737612 6.179133 -21.337218
LeftToeBase 20.082858 -0.000000 -0.000000
RightUpLeg 12.502115 -6.396261 1.463967
RightLeg -1.358080 -0.000000 0.000000
RightFoot -15.121065 -20.732739 18.009724
RightToeBase 12.079238 -0.000000 -0.000000
1838
root 4.427563 32.465896 0.332065 -4.765981 16.401436 1.876181
Spine -2.253461 14.747874 -3.328232
Head 12.816400 -25.082335 -7.146938
LeftShoulder -4.734570 -9.005652 22.143094
LeftArm -5.546830 37.185750 -103.202888
LeftForeArm 3.199308 -0.000000 10.270235
LeftHand 9.926158 -0.000000 -7.364755
LeftHandThumb1 -26.253704 0.000000 33.147579
RightShoulder -10.493912 19.634973 -54.670548
RightArm 97.097195 45.185678 130.522092
RightForeArm 39.836601 -0.000000 109.595618
RightHand 31.252027 0.000000 -12.395818
RightHandThumb1 -24.326973 -0.000000 -32.862282
LeftUpLeg 7.659232 -10.268809 -2.861037
LeftLeg 4.040743 -0.000000 -0.000000
LeftFoot -12.702264 6.005299 -21.407864
LeftToeBase 19.765593 -0.000000 -0.000000
RightUpLeg 12.491682 -6.400925 1.483022
RightLeg -1.343247 -0.000000 0.000000
RightFoot -15.108177 -20.694757 17.993160
RightToeBase 12.060150 -0.000000 -0.000000
1839
root 4.430424 32.464939 0.337151 -4.760953 16.379258 1.877198
Spine -2.259676 14.775954 -3.335375
Head 12.790275 -25.098818 -7.116456
LeftShoulder -4.731941 -9.022290 22.151559
LeftArm -5.556975 37.162378 -103.214536
LeftForeArm 3.221651 -0.000000 10.255085
LeftHand 9.955967 -0.000000 -7.367683
LeftHandThumb1 -26.253704 0.000000 33.147579
RightShoulder -10.485807 19.582532 -54.678065
RightArm 96.897244 45.073051 130.056084
RightForeArm 39.851033 -0.000000 109.756081
RightHand 31.252950 -0.000000 -12.303565
RightHandThumb1 -24.326973 -0.000000 -32.862282
LeftUpLeg 7.667712 -10.285861 -2.871015
LeftLeg 4.055786 -0.000000 -0.000000
LeftFoot -12.726379 6.001320 -21.406781
LeftToeBase 19.656688 -0.000000 -0.000000
RightUpLeg 12.491801 -6.397438 1.478892
RightLeg -1.339217 -0.000000 0.000000
RightFoot -15.109660 -20.684812 17.978612
RightToeBase 11.978193 -0.000000 -0.000000
1840
root 4.433457 32.463580 0.342757 -4.768919 16.355004 1.876031
Spine -2.249362 14.794546 -3.335289
Head 12.760047 -25.121357 -7.083497
LeftShoulder -4.737162 -9.029148 22.160538
LeftArm -5.559298 37.157299 -103.223619
LeftForeArm 3.238558 -0.000000 10.245836
LeftHand 9.956371 -0.000000 -7.335000
LeftHandThumb1 -26.253704 0.000000 33.147579
RightShoulder -10.482642 19.537212 -54.690076
RightArm 96.685687 44.944427 129.568747
RightForeArm 39.772858 0.000000 109.887770
RightHand 31.316287 -0.000000 -12.152151
RightHandThumb1 -24.326973 -0.000000 -32.862282
LeftUpLeg 7.699655 -10.287863 -2.877785
LeftLeg 4.028153 -0.000000 -0.000000
LeftFoot -12.745969 6.044158 -21.422816
LeftToeBase 19.702411 -0.000000 -0.000000
RightUpLeg 12.511396 -6.406213 1.472240
RightLeg -1.347156 -0.000000 0.000000
RightFoot -15.103398 -20.669986 17.943898
RightToeBase 12.014220 -0.000000 -0.000000
1841
root 4.435984 32.462623 0.348539 -4.767669 16.327882 1.876648
Spine -2.255286 14.819343 -3.346747
Head 12.733053 -25.135097 -7.030737
LeftShoulder -4.739997 -9.023212 22.172219
LeftArm -5.544963 37.148566 -103.217083
LeftForeArm 3.288093 -0.000000 10.243504
LeftHand 9.875470 -0.000000 -7.442491
LeftHandThumb1 -26.253704 0.000000 33.147579
RightShoulder -10.473378 19.500979 -54.697105
RightArm 96.441837 44.854982 129.054634
RightForeArm 39.730949 0.000000 110.056588
RightHand 31.219150 -0.000000 -11.617181
RightHandThumb1 -24.326973 -0.000000 -32.862282
LeftUpLeg 7.720734 -10.267697 -2.880663
LeftLeg 4.012521 -0.000000 -0.000000
LeftFoot -12.756490 6.050113 -21.423524
LeftToeBase 19.700810 -0.000000 -0.000000
RightUpLeg 12.519899 -6.402337 1.465958
RightLeg -1.349179 -0.000000 0.000000
RightFoot -15.112935 -20.633958 17.955712
RightToeBase 12.069237 -0.000000 -0.000000
